<svg aria-hidden="true" style="position:absolute;width:0;height:0;overflow:hidden" xmlns="http://www.w3.org/2000/svg"><defs><symbol id="icon-try-on-icon-1" viewBox="0 0 44 32"><path fill="none" stroke="#c8ab90" style="stroke:var(--color1, #c8ab90)" stroke-miterlimit="3.864" stroke-width="1.524" d="M5.336 28.19 5.334 2.404c0-.907.613-1.642 1.37-1.642H38.25c.756 0 1.37.735 1.37 1.642v25.692"/><path fill="none" stroke="#c8ab90" style="stroke:var(--color1, #c8ab90)" stroke-miterlimit="3.864" stroke-width="1.524" d="M22.138 28.757h3.184v-.717h18.107v.588s.003 1.965-2.433 2.045c-1.947.063-18.857 0-18.857 0"/><path fill="none" stroke="#c8ab90" style="stroke:var(--color1, #c8ab90)" stroke-miterlimit="3.864" stroke-width="1.524" d="M26.71 28.757H20v-.717H.762v.588s-.003 1.965 2.585 2.045c2.069.063 23.363 0 23.363 0"/><path fill="none" stroke="#c8ab90" style="stroke:var(--color1, #c8ab90)" stroke-width="1.524" d="M22.779 21.333h3.573V13.74l2.68 1.34 2.233-2.68-4.02-4.02h-2.233c-.149.744-.983 2.233-3.126 2.233"/><path fill="none" stroke="#c8ab90" style="stroke:var(--color1, #c8ab90)" stroke-width="1.524" d="M22.779 21.333h-4.913V13.74l-2.68 1.34-2.233-2.68 4.02-4.02h2.233c.149.744.983 2.233 3.126 2.233"/></symbol><symbol id="icon-try-on-icon-2" viewBox="0 0 33 32"><path fill="none" stroke="#c8ab90" style="stroke:var(--color1, #c8ab90)" stroke-miterlimit="3.864" stroke-width="1.422" d="m14.735 12.255 1.809 1.809 2.753-2.753"/><path fill="none" stroke="#c8ab90" style="stroke:var(--color1, #c8ab90)" stroke-miterlimit="3.864" stroke-width="1.422" d="M17.083 17.581a5.01 5.01 0 1 0-.001-10.019 5.01 5.01 0 0 0 .001 10.019zM7.635 2.653H5.604v13.808M9.435 4.754H24.69"/><path fill="none" stroke="#c8ab90" style="stroke:var(--color1, #c8ab90)" stroke-miterlimit="3.864" stroke-width="1.422" d="M3.931 11.628H.714v19.66h30.648V11.597h-3.155"/><path fill="none" stroke="#c8ab90" style="stroke:var(--color1, #c8ab90)" stroke-miterlimit="3.864" stroke-width="1.422" d="m.925 31.289 15.178-11.801L31.27 31.289M26.58 16.602V.712H7.635v17.797M.711 11.701l9.814 9.814M31.362 11.701l-9.814 9.814"/></symbol><symbol id="icon-try-on-icon-3" viewBox="0 0 33 32"><path fill="none" stroke="#c8ab90" style="stroke:var(--color1, #c8ab90)" stroke-miterlimit="3.864" stroke-width="1.488" d="M3.267 23.7c-1.411-2.288-2.201-4.978-2.201-7.855 0-8.339 6.761-15.1 15.1-15.1s15.1 6.76 15.1 15.1c0 2.916-.826 5.638-2.257 7.946"/><path fill="none" stroke="#c8ab90" style="stroke:var(--color1, #c8ab90)" stroke-miterlimit="3.864" stroke-width="1.488" d="M.744 23.701h2.547l.666-2.932M31.265 23.718H28.99l-.617-2.948M10.862 12.091s1.377.313 1.377-.72v-1.227s-.157-1.002 1.133-1.002h3.925s1.446-.025 1.947-1.189"/><path fill="none" stroke="#c8ab90" style="stroke:var(--color1, #c8ab90)" stroke-linecap="round" stroke-miterlimit="3.864" stroke-width="1.488" d="M19.246 8.016v1.033s.97-.225.97.845v1.102s-.119 1.315 1.415 1.315V7.228s-.219-2.103-1.885-2.103h-5.465s-1.408-.188-1.408 1.665c0 0-2.041-.401-2.041 1.415v5.333M21.054 14.173c0 2.923-2.166 5.603-4.837 5.603s-4.838-2.68-4.838-5.603"/><path fill="none" stroke="#c8ab90" style="stroke:var(--color1, #c8ab90)" stroke-miterlimit="3.864" stroke-width="1.488" d="M13.208 18.52v3.485l3.115.941 2.935-.98v-3.445M13.208 21.926h-1.272l-1.804 1.843s-3.193.409-4.7 2.739M19.299 21.885h1.02l1.86 1.726s3.115-.023 4.857 2.974"/><path fill="none" stroke="#c8ab90" style="stroke:var(--color1, #c8ab90)" stroke-linecap="round" stroke-miterlimit="3.864" stroke-width="1.488" d="M5.393 26.587s3.138 4.465 10.93 4.465 10.632-4.465 10.632-4.465"/><path fill="none" stroke="#c8ab90" style="stroke:var(--color1, #c8ab90)" stroke-miterlimit="3.864" stroke-width="1.488" d="m10.053 23.729 4.095 2.056 2.213-1.938 2.056 1.977 3.798-2.134M16.323 22.945v.981M21.649 12.301v1.109l-.58.77M10.837 13.456l.54.769"/></symbol><symbol id="icon-try-on-icon-4" viewBox="0 0 25 32"><path fill="none" stroke="#c8ab90" style="stroke:var(--color1, #c8ab90)" stroke-miterlimit="3.864" stroke-width="1.333" d="M16.666 24.883V5.852h-14v21.259h14v-2.228zM8.623 29.221h1.851"/><path fill="none" stroke="#c8ab90" style="stroke:var(--color1, #c8ab90)" stroke-miterlimit="3.864" stroke-width="1.333" d="M18.815 24.876v3.93c0 1.355-1.118 2.453-2.497 2.453H3.164c-1.379 0-2.497-1.098-2.497-2.453V3.12C.667 1.765 1.785.667 3.164.667h13.154c1.379 0 2.497 1.098 2.497 2.453v21.756z"/><path fill="#b59475" style="fill:var(--color2, #b59475)" d="M7.333 2.741H12v1.037H7.333V2.741z"/><path fill="#f2f1f0" style="fill:var(--color3, #f2f1f0)" d="M5.333 8.964h15.556V24.52H5.333V8.964z"/><path fill="none" stroke="#c8ab90" style="stroke:var(--color1, #c8ab90)" stroke-miterlimit="3.864" stroke-width="1.333" d="M5.333 10.891c0-.206.15-.372.335-.372h17.998c.185 0 .335.166.335.372v11.7c0 .206-.15.372-.335.372H5.668c-.185 0-.335-.166-.335-.372v-11.7z"/><path fill="#b59475" style="fill:var(--color2, #b59475)" d="M5.851 12.592h18.148v1.037H5.851v-1.037zM5.851 16.223h18.148v1.037H5.851v-1.037zM6.889 18.296h5.704v1.037H6.889v-1.037z"/><path fill="none" stroke="#c8ab90" style="stroke:var(--color1, #c8ab90)" stroke-miterlimit="3.864" stroke-width="1.333" d="M21.927 18.814h-7.778v2.074h7.778v-2.074z"/></symbol><symbol id="icon-try-on-icon-5" viewBox="0 0 30 32"><path fill="none" stroke="#c8ab90" style="stroke:var(--color1, #c8ab90)" stroke-miterlimit="3.864" stroke-width="1.362" d="M14.979 19.022a1.39 1.39 0 1 0 0-2.779 1.39 1.39 0 0 0 0 2.779z"/><path fill="none" stroke="#c8ab90" style="stroke:var(--color1, #c8ab90)" stroke-miterlimit="3.864" stroke-width="1.362" d="M15.068 8.462c5.016 0 9.082 4.106 9.082 9.171s-4.066 9.17-9.082 9.17a8.988 8.988 0 0 1-6.48-2.744"/><path fill="none" stroke="#c8ab90" style="stroke:var(--color1, #c8ab90)" stroke-miterlimit="3.864" stroke-width="1.362" d="M14.979 30.694c7.214 0 13.061-5.848 13.061-13.061S22.192 4.572 14.979 4.572 1.918 10.42 1.918 17.633s5.848 13.061 13.061 13.061zM14.979 4.571a1.945 1.945 0 1 0 0-3.89 1.945 1.945 0 0 0 0 3.89zM1.362 6.999l2.929-2.983 1.517 1.546-2.849 2.901L1.361 7zM28.595 6.999l-2.929-2.983-1.517 1.546 2.848 2.901L28.595 7z"/><path fill="none" stroke="#c8ab90" style="stroke:var(--color1, #c8ab90)" stroke-linecap="square" stroke-miterlimit="3.864" stroke-width="1.362" d="m8.588 24.024 5.28-5.28"/></symbol></defs></svg>